# xmcd
#
# Track frame offsets:
# 150
# 20109
# 65523
# 105442
# 142111
# 173788
#
# Disc length: 2688 seconds
#
#
# Revision: 0
# Processed by: cddbd v1.5.2PL0 Copyright (c) Steve Scherf et al.
# Submitted via: Nero 7, 11, 10, 0 
#
DISCID=510a7e06
DTITLE=Johnny Winter - Central Park New York 1980 - CD 2
DYEAR=1980
DGENRE=Blues
TTITLE0=The Crawl
TTITLE1=Highway 61 Revisited
TTITLE2=Rollin ' And Tumblin'
TTITLE3=Come On In My Kitchen
TTITLE4=Johnny B. Goode
TTITLE5=Jumpin' Jack Flash
EXTD=
EXTT0=The Crawl
EXTT1=Highway 61 Revisited
EXTT2=Rollin ' And Tumblin'
EXTT3=Come On In My Kitchen
EXTT4=Johnny B. Goode
EXTT5=Jumpin' Jack Flash
PLAYORDER=
